<svg width="166" height="64" viewBox="0 0 166 64" fill="none" xmlns="http://www.w3.org/2000/svg">
  <g transform="translate(8, 8)">
    <svg width="48" height="48" viewBox="0 0 64 64" fill="none">
      <circle cx="19" cy="19" r="11" fill="#1B365D"/>
      <circle cx="45" cy="19" r="11" fill="#1B365D"/>
      <circle cx="19" cy="45" r="11" fill="#1B365D"/>
      <circle cx="45" cy="45" r="11" fill="#22B8CF"/>
      <path d="M39.5 45.5L43 49L51 41" stroke="#FFFFFF" stroke-width="2.8" stroke-linecap="round" stroke-linejoin="round"/>
    </svg>
  </g>
  <g transform="translate(72, 14.0)">
    <path d="M180 0V1490H690Q864 1490 976.5 1426.5Q1089 1363 1143.5 1256.0Q1198 1149 1198 1016Q1198 883 1143.5 775.0Q1089 667 977.0 603.0Q865 539 691 539H330V706H682Q800 706 872.0 746.5Q944 787 976.5 857.5Q1009 928 1009 1016Q1009 1104 976.5 1173.5Q944 1243 871.5 1283.0Q799 1323 680 1323H370V0Z" fill="#1B365D" transform="translate(0.0, 36.0) scale(0.017578, -0.017578)"/>
    <path d="M471 -26Q365 -26 278.5 14.0Q192 54 141.0 131.0Q90 208 90 318Q90 414 128.0 474.0Q166 534 229.5 568.5Q293 603 370.0 620.0Q447 637 525 647Q625 660 688.0 667.0Q751 674 781.5 691.0Q812 708 812 749V755Q812 825 786.0 873.5Q760 922 708.0 948.0Q656 974 578 974Q498 974 441.0 949.0Q384 924 348.5 886.5Q313 849 295 810L122 867Q165 969 238.0 1026.5Q311 1084 399.0 1108.0Q487 1132 573 1132Q629 1132 700.5 1118.5Q772 1105 838.5 1065.0Q905 1025 948.5 946.5Q992 868 992 737V0H815V152H803Q784 113 742.0 71.5Q700 30 633.0 2.0Q566 -26 471 -26ZM502 133Q602 133 671.0 172.0Q740 211 776.0 273.5Q812 336 812 404V559Q801 546 764.0 535.5Q727 525 679.5 517.0Q632 509 587.5 503.5Q543 498 517 495Q452 487 395.5 467.5Q339 448 305.0 410.5Q271 373 271 309Q271 251 301.0 212.0Q331 173 383.0 153.0Q435 133 502 133Z" fill="#1B365D" transform="translate(23.0, 36.0) scale(0.017578, -0.017578)"/>
    <path d="M158 0V1118H332V946H344Q375 1031 454.5 1082.5Q534 1134 634 1134Q654 1134 681.5 1133.0Q709 1132 725 1131V950Q717 952 685.0 956.0Q653 960 617 960Q537 960 473.5 926.5Q410 893 374.0 834.5Q338 776 338 700V0Z" fill="#1B365D" transform="translate(43.2, 36.0) scale(0.017578, -0.017578)"/>
    <path d="M158 0V1118H338V0ZM249 1301Q198 1301 161.0 1336.0Q124 1371 124 1420Q124 1470 161.0 1504.5Q198 1539 249 1539Q301 1539 338.0 1504.5Q375 1470 375 1420Q375 1371 338.0 1336.0Q301 1301 249 1301Z" fill="#1B365D" transform="translate(56.8, 36.0) scale(0.017578, -0.017578)"/>
    <path d="M598 1118V964H20V1118ZM188 1384H368V290Q368 215 398.5 180.5Q429 146 500 146Q517 146 543.5 150.0Q570 154 592 158L629 6Q601 -4 565.5 -9.0Q530 -14 495 -14Q350 -14 269.0 62.5Q188 139 188 276Z" fill="#1B365D" transform="translate(65.5, 36.0) scale(0.017578, -0.017578)"/>
    <path d="M158 0V1118H338V0ZM249 1301Q198 1301 161.0 1336.0Q124 1371 124 1420Q124 1470 161.0 1504.5Q198 1539 249 1539Q301 1539 338.0 1504.5Q375 1470 375 1420Q375 1371 338.0 1336.0Q301 1301 249 1301Z" fill="#1B365D" transform="translate(77.3, 36.0) scale(0.017578, -0.017578)"/>
  </g>
</svg>
