<svg width="181" height="136" viewBox="0 0 181 136" fill="none" xmlns="http://www.w3.org/2000/svg">
  <g transform="translate(36, 16)">
    <svg width="64" height="64" viewBox="0 0 64 64" fill="none">
      <circle cx="19" cy="19" r="11" fill="#1B365D"/>
      <circle cx="45" cy="19" r="11" fill="#1B365D"/>
      <circle cx="19" cy="45" r="11" fill="#1B365D"/>
      <circle cx="45" cy="45" r="11" fill="#22B8CF"/>
      <path d="M39.5 45.5L43 49L51 41" stroke="#FFFFFF" stroke-width="2.8" stroke-linecap="round" stroke-linejoin="round"/>
    </svg>
  </g>
  <g transform="translate(16.0, 92)">
    <path d="M600 0 52 1490H252L567 606Q594 530 634.5 403.0Q675 276 729 90H692Q746 281 786.0 405.5Q826 530 852 606L1159 1490H1361L819 0Z" fill="#1B365D" transform="translate(0.0, 28.0) scale(0.013672, -0.013672)"/>
    <path d="M783 -20Q592 -20 442.5 72.5Q293 165 207.5 336.5Q122 508 122 744Q122 981 207.5 1152.5Q293 1324 442.5 1417.0Q592 1510 783 1510Q896 1510 996.5 1477.0Q1097 1444 1177.0 1380.5Q1257 1317 1310.5 1226.5Q1364 1136 1384 1021H1194Q1178 1098 1139.5 1156.0Q1101 1214 1045.5 1254.0Q990 1294 923.0 1314.0Q856 1334 783 1334Q649 1334 541.0 1266.0Q433 1198 370.0 1066.5Q307 935 307 744Q307 554 370.5 422.5Q434 291 542.0 223.5Q650 156 783 156Q856 156 923.0 176.5Q990 197 1045.5 236.5Q1101 276 1139.5 334.5Q1178 393 1194 469H1384Q1365 355 1311.5 265.0Q1258 175 1178.0 111.0Q1098 47 997.5 13.5Q897 -20 783 -20Z" fill="#1B365D" transform="translate(19.3, 28.0) scale(0.013672, -0.013672)"/>
    <path d="M783 -20Q592 -20 442.5 72.5Q293 165 207.5 336.5Q122 508 122 744Q122 981 207.5 1152.5Q293 1324 442.5 1417.0Q592 1510 783 1510Q896 1510 996.5 1477.0Q1097 1444 1177.0 1380.5Q1257 1317 1310.5 1226.5Q1364 1136 1384 1021H1194Q1178 1098 1139.5 1156.0Q1101 1214 1045.5 1254.0Q990 1294 923.0 1314.0Q856 1334 783 1334Q649 1334 541.0 1266.0Q433 1198 370.0 1066.5Q307 935 307 744Q307 554 370.5 422.5Q434 291 542.0 223.5Q650 156 783 156Q856 156 923.0 176.5Q990 197 1045.5 236.5Q1101 276 1139.5 334.5Q1178 393 1194 469H1384Q1365 355 1311.5 265.0Q1258 175 1178.0 111.0Q1098 47 997.5 13.5Q897 -20 783 -20Z" fill="#1B365D" transform="translate(47.6, 28.0) scale(0.013672, -0.013672)"/>
    <path d="M613 -24Q461 -24 346.5 48.0Q232 120 168.0 250.0Q104 380 104 552Q104 727 168.0 857.5Q232 988 346.5 1060.0Q461 1132 613 1132Q766 1132 881.0 1060.0Q996 988 1060.0 857.5Q1124 727 1124 552Q1124 380 1060.0 250.0Q996 120 881.0 48.0Q766 -24 613 -24ZM613 137Q726 137 799.0 195.0Q872 253 907.0 347.5Q942 442 942 552Q942 663 907.0 758.5Q872 854 799.0 912.5Q726 971 613 971Q501 971 429.0 912.5Q357 854 322.0 759.0Q287 664 287 552Q287 442 322.0 347.5Q357 253 429.0 195.0Q501 137 613 137Z" fill="#1B365D" transform="translate(68.1, 28.0) scale(0.013672, -0.013672)"/>
    <path d="M158 0V1118H333L334 868H320Q343 959 392.5 1018.5Q442 1078 508.5 1108.0Q575 1138 647 1138Q769 1138 844.5 1063.0Q920 988 942 866H918Q938 950 991.0 1011.0Q1044 1072 1119.5 1105.0Q1195 1138 1284 1138Q1381 1138 1461.0 1096.0Q1541 1054 1588.5 969.0Q1636 884 1636 754V0H1456V749Q1456 870 1388.0 922.0Q1320 974 1230 974Q1155 974 1100.5 942.5Q1046 911 1016.5 856.0Q987 801 987 730V0H807V767Q807 860 745.0 917.0Q683 974 588 974Q523 974 465.5 943.5Q408 913 373.0 853.0Q338 793 338 704V0Z" fill="#1B365D" transform="translate(84.9, 28.0) scale(0.013672, -0.013672)"/>
    <path d="M158 -418V1118H332V939H352Q371 969 405.0 1014.5Q439 1060 503.0 1096.0Q567 1132 676 1132Q816 1132 922.5 1062.0Q1029 992 1089.5 862.5Q1150 733 1150 556Q1150 378 1090.0 248.0Q1030 118 923.5 47.0Q817 -24 677 -24Q571 -24 506.0 12.5Q441 49 406.0 95.5Q371 142 352 173H338V-418ZM650 137Q755 137 825.5 193.5Q896 250 931.5 345.5Q967 441 967 558Q967 674 932.0 767.5Q897 861 826.5 916.0Q756 971 650 971Q547 971 477.0 919.0Q407 867 371.5 774.5Q336 682 336 558Q336 434 372.0 339.0Q408 244 478.5 190.5Q549 137 650 137Z" fill="#1B365D" transform="translate(109.4, 28.0) scale(0.013672, -0.013672)"/>
    <path d="M338 1490V0H158V1490Z" fill="#1B365D" transform="translate(126.6, 28.0) scale(0.013672, -0.013672)"/>
    <path d="M140 -405 186 -249 205 -254Q260 -268 305.0 -261.5Q350 -255 386.0 -217.0Q422 -179 449 -99L481 -6L54 1118H251L489 455Q527 351 553.0 249.0Q579 147 608 51H542Q571 147 597.5 249.5Q624 352 661 455L901 1118H1097L606 -167Q572 -256 524.5 -313.5Q477 -371 414.0 -398.5Q351 -426 272 -426Q224 -426 189.0 -419.0Q154 -412 140 -405Z" fill="#1B365D" transform="translate(133.3, 28.0) scale(0.013672, -0.013672)"/>
  </g>
</svg>
